<mxfile host="app.diagrams.net" modified="2020-11-02T18:36:36.401Z" agent="5.0 (Windows)" etag="hveS1Ic4VU1ecnKRi5Ex" version="13.8.8" type="github">
  <diagram id="8-qFMdN2M5BpMNW03hwC" name="Page-1">
    <mxGraphModel dx="1027" dy="543" grid="1" gridSize="10" guides="1" tooltips="1" connect="1" arrows="1" fold="1" page="1" pageScale="1" pageWidth="1169" pageHeight="827" math="0" shadow="0">
      <root>
        <mxCell id="0" />
        <mxCell id="1" parent="0" />
        <mxCell id="YvCRl8Iy_vgOIxh5A2Na-1" value="" style="shape=umlLifeline;participant=umlActor;perimeter=lifelinePerimeter;whiteSpace=wrap;html=1;container=1;collapsible=0;recursiveResize=0;verticalAlign=top;spacingTop=36;outlineConnect=0;" parent="1" vertex="1">
          <mxGeometry x="80" y="80" width="20" height="340" as="geometry" />
        </mxCell>
        <mxCell id="RcH9cWTwy_EmR8gQbs1w-1" value=":Cadastrar Livros" style="shape=umlLifeline;perimeter=lifelinePerimeter;whiteSpace=wrap;html=1;container=1;collapsible=0;recursiveResize=0;outlineConnect=0;" vertex="1" parent="1">
          <mxGeometry x="230" y="80" width="110" height="320" as="geometry" />
        </mxCell>
      </root>
    </mxGraphModel>
  </diagram>
</mxfile>
